# xmcd
#
# Track frame offsets:
#	150
#	4547
#	23675
#	68786
#	94887
#	117120
#	142159
#	156497
#	162146
#	243609
#	257003
#	262662
#
# Disc length: 4000 seconds
#
# Revision: 1
# Processed by: cddbd v1.4PL0 Copyright (c) Steve Scherf et al.
# Submitted via: audiograbber 1.81.02
#
DISCID=980f9e0c
DTITLE=Youp van 't Hek - Spelen met je leven
DYEAR=1900
DGENRE=Cabaret
TTITLE0=Fragment 'Spelen met je leven'
TTITLE1=Zoldercafé
TTITLE2=Relatiegeschenkenbusiness
TTITLE3=Henk van der Meyden
TTITLE4=Telefoon II
TTITLE5=Bang voor de dood?
TTITLE6=Grand Café
TTITLE7=Telefoon III
TTITLE8=Maria, Jaapje, zwager Henk and oma
TTITLE9=Per ongeluk
TTITLE10=Telefoon IV
TTITLE11=Het Lourdes gevoel
EXTD=
EXTT0=
EXTT1=
EXTT2=
EXTT3=
EXTT4=
EXTT5=
EXTT6=
EXTT7=
EXTT8=
EXTT9=
EXTT10=
EXTT11=
PLAYORDER=
